<svg width="24" height="26" viewBox="0 0 24 26" fill="none" xmlns="http://www.w3.org/2000/svg">
<circle cx="11.7708" cy="6.23596" r="5.48596" stroke="#4A2C8E" stroke-width="1.5"/>
<path d="M19.3307 25.0001H4.59113C4.02422 25.0001 2.89041 25.0001 1.7566 23.8663C1.40655 23.5162 1.27108 23.2208 1.18969 22.7325C0.622783 19.331 1.48082 16.5731 1.7566 15.9296C1.95161 15.4746 2.05457 15.2114 2.32351 14.7958C2.83377 14.0072 3.2087 13.5611 4.02422 13.0951C4.63208 12.7477 5.86758 12.316 6.29183 12.5282C7.42565 13.0951 7.99255 15.3627 11.9609 15.3627C15.9292 15.3627 15.9292 12.5282 17.063 12.5282C18.7638 12.5282 19.8976 13.2695 20.4645 13.662C20.9793 14.0184 21.2419 14.2809 21.5983 14.7958C21.8801 15.2028 21.9755 15.3065 22.1652 15.9296C23.3671 19.8778 22.8573 20.9098 22.7321 21.5986C22.6069 22.2875 22.5411 22.7087 22.1652 23.2994C21.829 23.8277 21.5597 24.097 21.0314 24.4332C20.4407 24.809 19.3307 25.0001 19.3307 25.0001Z" stroke="#4A2C8E" stroke-width="1.5"/>
</svg>
