<svg width="61" height="61" viewBox="0 0 61 61" fill="none" xmlns="http://www.w3.org/2000/svg">
<rect width="61" height="61" rx="12" fill="white"/>
<path d="M30.4979 20.6763C27.8919 20.6763 25.3926 21.7115 23.5498 23.5542C21.7071 25.397 20.6719 27.8963 20.6719 30.5023C20.6719 33.1083 21.7071 35.6076 23.5498 37.4503C25.3926 39.293 27.8919 40.3283 30.4979 40.3283C33.1039 40.3283 35.6032 39.293 37.4459 37.4503C39.2886 35.6076 40.3239 33.1083 40.3239 30.5023C40.3239 27.8963 39.2886 25.397 37.4459 23.5542C35.6032 21.7115 33.1039 20.6763 30.4979 20.6763ZM30.4979 36.8836C28.8049 36.8836 27.1812 36.2111 25.9841 35.014C24.7869 33.8168 24.1144 32.1932 24.1144 30.5001C24.1144 28.8071 24.7869 27.1835 25.9841 25.9863C27.1812 24.7892 28.8049 24.1166 30.4979 24.1166C32.1909 24.1166 33.8146 24.7892 35.0117 25.9863C36.2088 27.1835 36.8814 28.8071 36.8814 30.5001C36.8814 32.1932 36.2088 33.8168 35.0117 35.014C33.8146 36.2111 32.1909 36.8836 30.4979 36.8836Z" fill="#4A2C8E"/>
<path d="M40.7126 22.6054C41.9778 22.6054 43.0034 21.5798 43.0034 20.3147C43.0034 19.0495 41.9778 18.0239 40.7126 18.0239C39.4475 18.0239 38.4219 19.0495 38.4219 20.3147C38.4219 21.5798 39.4475 22.6054 40.7126 22.6054Z" fill="#4A2C8E"/>
<path d="M48.6323 17.986C48.1403 16.7156 47.3886 15.562 46.4251 14.5989C45.4617 13.6358 44.3077 12.8844 43.0372 12.393C41.5504 11.8349 39.9797 11.5331 38.3919 11.5005C36.3455 11.4112 35.6974 11.3857 30.5082 11.3857C25.3189 11.3857 24.6538 11.3857 22.6244 11.5005C21.0379 11.5314 19.4683 11.8333 17.9834 12.393C16.7125 12.8839 15.5583 13.635 14.5947 14.5982C13.6312 15.5613 12.8796 16.7153 12.3883 17.986C11.8301 19.4727 11.529 21.0435 11.4979 22.6312C11.4065 24.6755 11.3789 25.3236 11.3789 30.515C11.3789 35.7042 11.3789 36.3651 11.4979 38.3987C11.5298 39.9882 11.8294 41.5565 12.3883 43.0461C12.881 44.3164 13.6333 45.4698 14.5971 46.4329C15.5609 47.3959 16.7149 48.1473 17.9855 48.6391C19.4676 49.2197 21.0378 49.543 22.6287 49.5954C24.675 49.6846 25.3232 49.7122 30.5124 49.7122C35.7017 49.7122 36.3668 49.7122 38.3962 49.5954C39.9837 49.5631 41.5544 49.262 43.0414 48.705C44.3116 48.2124 45.4652 47.4604 46.4286 46.4971C47.392 45.5337 48.1439 44.3801 48.6365 43.1099C49.1954 41.6224 49.495 40.0541 49.5269 38.4646C49.6183 36.4204 49.6459 35.7722 49.6459 30.5809C49.6459 25.3895 49.6459 24.7307 49.5269 22.6971C49.5022 21.0869 49.1995 19.4931 48.6323 17.986ZM46.044 38.2415C46.0303 39.4661 45.8068 40.6794 45.3832 41.8285C45.064 42.6548 44.5755 43.4052 43.9489 44.0314C43.3224 44.6576 42.5717 45.1457 41.7452 45.4644C40.6088 45.8861 39.4084 46.1096 38.1964 46.1252C36.1777 46.2187 35.6082 46.2421 30.4317 46.2421C25.2509 46.2421 24.7218 46.2421 22.6648 46.1252C21.4534 46.1104 20.2536 45.8868 19.1182 45.4644C18.2887 45.1477 17.535 44.6605 16.9058 44.0342C16.2766 43.4078 15.7858 42.6564 15.4653 41.8285C15.0476 40.6917 14.8242 39.4928 14.8044 38.2819C14.713 36.2631 14.6918 35.6936 14.6918 30.5171C14.6918 25.3385 14.6918 24.8094 14.8044 22.7502C14.8181 21.5263 15.0417 20.3138 15.4653 19.1654C16.1134 17.4887 17.4415 16.1691 19.1182 15.5274C20.2542 15.1069 21.4536 14.8834 22.6648 14.8665C24.6857 14.7751 25.253 14.7496 30.4317 14.7496C35.6103 14.7496 36.1415 14.7496 38.1964 14.8665C39.4085 14.8811 40.609 15.1046 41.7452 15.5274C42.5716 15.8467 43.3222 16.3353 43.9487 16.9618C44.5752 17.5883 45.0638 18.3389 45.3832 19.1654C45.8008 20.3021 46.0242 21.5011 46.044 22.712C46.1354 24.7329 46.1588 25.3002 46.1588 30.4789C46.1588 35.6554 46.1588 36.2121 46.0674 38.2436H46.044V38.2415Z" fill="#4A2C8E"/>
</svg>
