<svg width="21" height="21" viewBox="0 0 21 21" fill="none" xmlns="http://www.w3.org/2000/svg">
<path d="M16.6272 14.8728C15.1834 14.8728 14.0088 16.0475 14.0088 17.4913C14.0088 18.9351 15.1834 20.1097 16.6272 20.1097C18.071 20.1097 19.2457 18.9351 19.2457 17.4913C19.2457 16.0475 18.071 14.8728 16.6272 14.8728ZM16.6272 18.5386C16.0496 18.5386 15.5799 18.0689 15.5799 17.4913C15.5799 16.9136 16.0496 16.4439 16.6272 16.4439C17.2049 16.4439 17.6746 16.9136 17.6746 17.4913C17.6746 18.0689 17.2049 18.5386 16.6272 18.5386Z" fill="white"/>
<path d="M20.8331 4.7526C20.6843 4.56225 20.4562 4.45122 20.2146 4.45122H4.8489L4.1419 1.49315C4.05733 1.13968 3.74126 0.890137 3.37782 0.890137H0.785536C0.35167 0.890096 0 1.24177 0 1.67563C0 2.1095 0.35167 2.46117 0.785536 2.46117H2.75778L5.31077 13.1435C5.39535 13.4972 5.71142 13.7465 6.07486 13.7465H18.3031C18.6642 13.7465 18.9789 13.5003 19.0656 13.15L20.9771 5.42551C21.0349 5.19094 20.9818 4.94295 20.8331 4.7526ZM17.6885 12.1754H6.6949L5.22435 6.02229H19.2109L17.6885 12.1754Z" fill="white"/>
<path d="M7.12236 14.8728C5.67852 14.8728 4.50391 16.0475 4.50391 17.4913C4.50391 18.9351 5.67856 20.1097 7.12236 20.1097C8.56616 20.1097 9.74081 18.9351 9.74081 17.4913C9.74081 16.0475 8.56616 14.8728 7.12236 14.8728ZM7.12236 18.5386C6.54473 18.5386 6.07498 18.0689 6.07498 17.4913C6.07498 16.9136 6.54473 16.4439 7.12236 16.4439C7.69998 16.4439 8.16974 16.9136 8.16974 17.4913C8.16974 18.0689 7.69998 18.5386 7.12236 18.5386Z" fill="white"/>
</svg>
