<svg width="22" height="30" viewBox="0 0 22 30" fill="none" xmlns="http://www.w3.org/2000/svg">
<path d="M0.987731 13.5321C0.90694 12.7924 1.48626 12.1464 2.23034 12.1464H15.2105C15.9546 12.1464 16.5339 12.7924 16.4531 13.5321L14.858 28.1356C14.7888 28.7697 14.2533 29.2499 13.6154 29.2499H3.82539C3.18756 29.2499 2.65203 28.7697 2.58278 28.1356L0.987731 13.5321Z" stroke="#A6A2B6" stroke-width="1.5"/>
<path d="M7.48274 3.72645L17.8992 8.45815C19.0306 8.97208 19.5312 10.3059 19.0172 11.4373L18.2672 13.0885C18.21 13.2142 18.0618 13.2698 17.9361 13.2127L3.87778 6.82668C3.75207 6.76958 3.69646 6.62138 3.75356 6.49567L4.50363 4.84445C5.01756 3.71306 6.35136 3.21252 7.48274 3.72645Z" stroke="#A6A2B6" stroke-width="1.5"/>
<rect x="11.4223" y="3.06657" width="4.8136" height="2.48816" rx="1.24408" transform="rotate(24.43 11.4223 3.06657)" stroke="#A6A2B6"/>
</svg>
