<svg width="42" height="42" viewBox="0 0 42 42" fill="none" xmlns="http://www.w3.org/2000/svg">
<circle cx="21" cy="21" r="20.25" stroke="#92A0CF" stroke-width="1.5"/>
<path d="M13.918 34.1862C14.8133 32.9652 16.897 30.035 18.0691 28.0815C19.2412 26.128 23.4412 18.1513 25.3947 14.4071" stroke="#92A0CF" stroke-width="1.5" stroke-linecap="round" stroke-linejoin="round"/>
<path d="M28.946 7.9458C27.4809 8.43417 24.4187 9.52319 23.4419 10.4999C22.221 11.7209 16.1164 20.2674 15.628 22.465C15.1396 24.6627 15.1396 25.8837 15.628 27.1046C16.0187 28.0813 16.6047 28.8139 16.8489 29.0581" stroke="#92A0CF" stroke-width="1.5" stroke-linecap="round" stroke-linejoin="round"/>
<path d="M19.291 29.3025C19.6166 29.3025 20.4631 29.156 21.2445 28.57C22.2212 27.8374 29.3026 16.849 29.5468 15.3839C29.791 13.9188 29.791 9.03509 29.0585 8.05835" stroke="#92A0CF" stroke-width="1.5" stroke-linecap="round" stroke-linejoin="round"/>
<path d="M18.4457 17.5947C18.2503 17.9854 18.8835 19.942 19.2904 20.7559" stroke="#92A0CF" stroke-width="1.5" stroke-linecap="round" stroke-linejoin="round"/>
<path d="M20.0548 15.0604C19.8594 15.4511 20.6246 17.1767 21.0315 17.9907" stroke="#92A0CF" stroke-width="1.5" stroke-linecap="round" stroke-linejoin="round"/>
</svg>
