<svg width="64" height="64" viewBox="0 0 64 64" fill="none" xmlns="http://www.w3.org/2000/svg">
<circle cx="32" cy="32" r="31" stroke="#92A0CF" stroke-width="2"/>
<path d="M0.488281 32.734H23.4501M40.3051 32.734L63.5112 32.7336" stroke="#92A0CF" stroke-width="2"/>
<path d="M9.03809 41.2825H16.1221" stroke="#92A0CF" stroke-width="2" stroke-linecap="round"/>
<path d="M39.084 49.3433H46.168" stroke="#92A0CF" stroke-width="2" stroke-linecap="round"/>
<path d="M48.3672 41.5266H55.4512" stroke="#92A0CF" stroke-width="2" stroke-linecap="round"/>
<path d="M18.5645 49.3433H25.6484" stroke="#92A0CF" stroke-width="2" stroke-linecap="round"/>
<path d="M31.1089 16.6785C31.1867 16.6005 31.2791 16.5386 31.3809 16.4963C31.4827 16.4541 31.5918 16.4324 31.702 16.4324C31.8122 16.4324 31.9213 16.4541 32.0231 16.4963C32.1249 16.5386 32.2174 16.6005 32.2952 16.6785C33.1849 17.5699 35.3179 20.1369 37.2315 23.2183C39.1249 26.2679 40.9177 30.0044 40.9177 33.1897C40.9177 36.2795 40.033 38.8062 38.3876 40.569C36.7405 42.3367 34.4098 43.2432 31.702 43.2432C28.996 43.2432 26.6652 42.3367 25.0165 40.569C23.3694 38.8062 22.4863 36.2795 22.4863 33.1897C22.4863 30.0027 24.2792 26.2695 26.1726 23.2183C28.0861 20.1352 30.2191 17.5716 31.1089 16.6785ZM27.5969 24.1013C25.7202 27.1258 24.1619 30.5121 24.1619 33.1897C24.1619 35.9645 24.9528 38.0455 26.2396 39.4245C27.5248 40.7985 29.383 41.5676 31.702 41.5676C34.0227 41.5676 35.8809 40.7985 37.1644 39.4245C38.4513 38.0455 39.2421 35.9645 39.2421 33.1897C39.2421 30.5121 37.6839 27.1241 35.8072 24.1013C34.585 22.1329 33.2125 20.2619 31.702 18.5049C30.1915 20.2619 28.8191 22.1329 27.5969 24.1013Z" fill="#92A0CF"/>
</svg>
