<svg width="93" height="24" viewBox="0 0 93 24" fill="none" xmlns="http://www.w3.org/2000/svg">
<path d="M0.00800014 1.1H4.168V19.98H15.88V23.5H0.00800014V1.1ZM29.222 23.82C26.9393 23.82 24.8807 23.3293 23.046 22.348C21.2113 21.3453 19.7713 19.9693 18.726 18.22C17.6807 16.4493 17.158 14.476 17.158 12.3C17.158 10.124 17.6807 8.16133 18.726 6.412C19.7713 4.64133 21.2113 3.26533 23.046 2.284C24.8807 1.28133 26.9393 0.779999 29.222 0.779999C31.5047 0.779999 33.5633 1.28133 35.398 2.284C37.2327 3.26533 38.6727 4.63067 39.718 6.38C40.7633 8.12933 41.286 10.1027 41.286 12.3C41.286 14.4973 40.7633 16.4707 39.718 18.22C38.6727 19.9693 37.2327 21.3453 35.398 22.348C33.5633 23.3293 31.5047 23.82 29.222 23.82ZM29.222 20.172C30.7153 20.172 32.0593 19.8413 33.254 19.18C34.4487 18.4973 35.3873 17.5587 36.07 16.364C36.7527 15.148 37.094 13.7933 37.094 12.3C37.094 10.8067 36.7527 9.46267 36.07 8.268C35.3873 7.052 34.4487 6.11333 33.254 5.452C32.0593 4.76933 30.7153 4.428 29.222 4.428C27.7287 4.428 26.3847 4.76933 25.19 5.452C23.9953 6.11333 23.0567 7.052 22.374 8.268C21.6913 9.46267 21.35 10.8067 21.35 12.3C21.35 13.7933 21.6913 15.148 22.374 16.364C23.0567 17.5587 23.9953 18.4973 25.19 19.18C26.3847 19.8413 27.7287 20.172 29.222 20.172ZM60.9915 12.044H64.9275V20.972C63.7755 21.8893 62.4315 22.5933 60.8955 23.084C59.3595 23.5747 57.7808 23.82 56.1595 23.82C53.8768 23.82 51.8182 23.3293 49.9835 22.348C48.1488 21.3453 46.7088 19.9693 45.6635 18.22C44.6182 16.4707 44.0955 14.4973 44.0955 12.3C44.0955 10.1027 44.6182 8.12933 45.6635 6.38C46.7088 4.63067 48.1488 3.26533 49.9835 2.284C51.8395 1.28133 53.9195 0.779999 56.2235 0.779999C58.1008 0.779999 59.8075 1.08933 61.3435 1.708C62.8795 2.32667 64.1702 3.23333 65.2155 4.428L62.5915 6.988C60.8848 5.28133 58.8262 4.428 56.4155 4.428C54.8368 4.428 53.4288 4.75867 52.1915 5.42C50.9755 6.08133 50.0155 7.00933 49.3115 8.204C48.6288 9.39867 48.2875 10.764 48.2875 12.3C48.2875 13.7933 48.6288 15.1373 49.3115 16.332C50.0155 17.5267 50.9755 18.4653 52.1915 19.148C53.4288 19.8307 54.8262 20.172 56.3835 20.172C58.1328 20.172 59.6688 19.788 60.9915 19.02V12.044ZM80.8783 23.82C78.5956 23.82 76.5369 23.3293 74.7023 22.348C72.8676 21.3453 71.4276 19.9693 70.3823 18.22C69.3369 16.4493 68.8143 14.476 68.8143 12.3C68.8143 10.124 69.3369 8.16133 70.3823 6.412C71.4276 4.64133 72.8676 3.26533 74.7023 2.284C76.5369 1.28133 78.5956 0.779999 80.8783 0.779999C83.1609 0.779999 85.2196 1.28133 87.0543 2.284C88.8889 3.26533 90.3289 4.63067 91.3743 6.38C92.4196 8.12933 92.9423 10.1027 92.9423 12.3C92.9423 14.4973 92.4196 16.4707 91.3743 18.22C90.3289 19.9693 88.8889 21.3453 87.0543 22.348C85.2196 23.3293 83.1609 23.82 80.8783 23.82ZM80.8783 20.172C82.3716 20.172 83.7156 19.8413 84.9103 19.18C86.1049 18.4973 87.0436 17.5587 87.7263 16.364C88.4089 15.148 88.7503 13.7933 88.7503 12.3C88.7503 10.8067 88.4089 9.46267 87.7263 8.268C87.0436 7.052 86.1049 6.11333 84.9103 5.452C83.7156 4.76933 82.3716 4.428 80.8783 4.428C79.3849 4.428 78.0409 4.76933 76.8463 5.452C75.6516 6.11333 74.7129 7.052 74.0303 8.268C73.3476 9.46267 73.0063 10.8067 73.0063 12.3C73.0063 13.7933 73.3476 15.148 74.0303 16.364C74.7129 17.5587 75.6516 18.4973 76.8463 19.18C78.0409 19.8413 79.3849 20.172 80.8783 20.172Z" fill="#4A2C8E"/>
</svg>
