<svg width="64" height="64" viewBox="0 0 64 64" fill="none" xmlns="http://www.w3.org/2000/svg">
<circle cx="32" cy="32" r="31" stroke="#92A0CF" stroke-width="2"/>
<circle cx="19.8918" cy="39.7837" r="1.72973" fill="#92A0CF"/>
<circle cx="32.0002" cy="39.7837" r="1.72973" fill="#92A0CF"/>
<circle cx="25.9465" cy="49.2974" r="1.72973" fill="#92A0CF"/>
<circle cx="44.1086" cy="39.7837" r="1.72973" fill="#92A0CF"/>
<circle cx="37.1887" cy="49.2974" r="1.72973" fill="#92A0CF"/>
<path d="M24.3794 14.746C26.3783 13.0519 28.9279 12.1163 31.5674 12.1082C36.9474 12.1082 41.4134 16.0394 41.8994 21.1086C45.0834 21.5509 47.5674 24.1711 47.5674 27.3868C47.5674 30.917 44.5714 33.7298 40.9414 33.7298H23.1294C18.9834 33.7298 15.5674 30.518 15.5674 26.4924C15.5674 23.0271 18.0994 20.1573 21.4514 19.43C21.7374 17.7337 22.8474 16.0433 24.3794 14.746ZM25.6854 16.234C24.1714 17.5175 23.3794 19.0644 23.3794 20.2752V21.1558L22.4894 21.2521C19.6954 21.5529 17.5674 23.8074 17.5674 26.4924C17.5674 29.376 20.0274 31.7642 23.1294 31.7642H40.9414C43.5274 31.7642 45.5674 29.775 45.5674 27.3868C45.5674 24.9966 43.5274 23.0074 40.9414 23.0074H39.9414V22.0246C39.9434 17.661 36.2234 14.0738 31.5674 14.0738C29.4071 14.0822 27.3211 14.8491 25.6854 16.2359V16.234Z" fill="#92A0CF"/>
</svg>
