<svg width="25" height="25" viewBox="0 0 25 25" fill="none" xmlns="http://www.w3.org/2000/svg">
<path d="M20.3125 22.6562H20.1797C4.82812 21.7734 2.64843 8.82031 2.34374 4.86719C2.31919 4.55983 2.35553 4.25064 2.45068 3.95735C2.54582 3.66406 2.69791 3.39242 2.89821 3.15801C3.09852 2.92359 3.34311 2.73101 3.61797 2.59128C3.89284 2.45156 4.19257 2.36744 4.5 2.34375H8.80468C9.11762 2.34345 9.42344 2.43712 9.68252 2.61263C9.94161 2.78814 10.142 3.0374 10.2578 3.32813L11.4453 6.25C11.5596 6.53402 11.588 6.84537 11.5269 7.14538C11.4658 7.44539 11.3179 7.72084 11.1016 7.9375L9.4375 9.61719C9.69743 11.0943 10.4048 12.456 11.464 13.5179C12.5231 14.5799 13.8829 15.2909 15.3594 15.5547L17.0547 13.875C17.2746 13.6611 17.5526 13.5166 17.8541 13.4596C18.1556 13.4027 18.4672 13.4357 18.75 13.5547L21.6953 14.7344C21.9817 14.8538 22.226 15.0558 22.3971 15.3146C22.5682 15.5734 22.6584 15.8773 22.6562 16.1875V20.3125C22.6562 20.9341 22.4093 21.5302 21.9698 21.9698C21.5302 22.4093 20.9341 22.6562 20.3125 22.6562ZM4.68749 3.90625C4.48029 3.90625 4.28158 3.98856 4.13507 4.13507C3.98856 4.28159 3.90624 4.4803 3.90624 4.6875V4.75C4.26562 9.375 6.57031 20.3125 20.2656 21.0938C20.3683 21.1001 20.4711 21.0861 20.5684 21.0526C20.6656 21.0191 20.7552 20.9667 20.8322 20.8985C20.9091 20.8303 20.9718 20.7475 21.0167 20.655C21.0616 20.5625 21.0878 20.462 21.0937 20.3594V16.1875L18.1484 15.0078L15.9062 17.2344L15.5312 17.1875C8.73437 16.3359 7.81249 9.53906 7.81249 9.46875L7.76562 9.09375L9.98437 6.85156L8.8125 3.90625H4.68749Z" fill="#4A2C8E"/>
</svg>
