<svg width="377" height="59" viewBox="0 0 377 59" fill="none" xmlns="http://www.w3.org/2000/svg">
<path d="M31.2279 2.86883C31.384 2.42192 32.016 2.42192 32.1721 2.86883L38.111 19.8785C38.3212 20.4806 38.8893 20.884 39.5271 20.884H58.5841C59.0771 20.884 59.2726 21.5221 58.8642 21.7982L43.5734 32.1366C43.0095 32.5178 42.773 33.231 42.9974 33.8737L48.8666 50.6836C49.0253 51.138 48.5132 51.5322 48.1145 51.2626L32.5402 40.7325C32.0326 40.3893 31.3674 40.3893 30.8598 40.7325L15.2855 51.2626C14.8868 51.5322 14.3747 51.138 14.5334 50.6836L20.4026 33.8737C20.627 33.231 20.3905 32.5178 19.8266 32.1366L4.53585 21.7982C4.12742 21.5221 4.32288 20.884 4.8159 20.884H23.8729C24.5107 20.884 25.0788 20.4806 25.289 19.8785L31.2279 2.86883Z" stroke="#BABABA" stroke-linejoin="round"/>
<path d="M109.628 2.86883C109.784 2.42192 110.416 2.42192 110.572 2.86883L116.511 19.8785C116.722 20.4806 117.29 20.884 117.928 20.884H136.984C137.478 20.884 137.673 21.5221 137.265 21.7982L121.974 32.1366C121.41 32.5178 121.173 33.231 121.398 33.8737L127.267 50.6836C127.426 51.138 126.914 51.5322 126.515 51.2626L110.941 40.7325C110.433 40.3893 109.768 40.3893 109.26 40.7325L93.6859 51.2626C93.2872 51.5322 92.7751 51.138 92.9338 50.6836L98.803 33.8737C99.0274 33.231 98.7909 32.5178 98.227 32.1366L82.9362 21.7982C82.5278 21.5221 82.7233 20.884 83.2163 20.884H102.273C102.911 20.884 103.479 20.4806 103.689 19.8785L109.628 2.86883Z" stroke="#BABABA" stroke-linejoin="round"/>
<path d="M188.028 2.86883C188.184 2.42192 188.816 2.42192 188.972 2.86883L194.911 19.8785C195.121 20.4806 195.689 20.884 196.327 20.884H215.384C215.877 20.884 216.072 21.5221 215.664 21.7982L200.373 32.1366C199.809 32.5178 199.573 33.231 199.797 33.8737L205.666 50.6836C205.825 51.138 205.313 51.5322 204.914 51.2626L189.34 40.7325C188.832 40.3893 188.167 40.3893 187.66 40.7325L172.085 51.2626C171.687 51.5322 171.175 51.138 171.333 50.6836L177.202 33.8737C177.427 33.231 177.19 32.5178 176.626 32.1366L161.336 21.7982C160.927 21.5221 161.123 20.884 161.616 20.884H180.673C181.31 20.884 181.879 20.4806 182.089 19.8785L188.028 2.86883Z" stroke="#BABABA" stroke-linejoin="round"/>
<path d="M266.428 2.86883C266.584 2.42192 267.216 2.42192 267.372 2.86883L273.311 19.8785C273.521 20.4806 274.09 20.884 274.727 20.884H293.784C294.277 20.884 294.473 21.5221 294.064 21.7982L278.774 32.1366C278.21 32.5178 277.973 33.231 278.198 33.8737L284.067 50.6836C284.225 51.138 283.713 51.5322 283.315 51.2626L267.74 40.7325C267.233 40.3893 266.568 40.3893 266.06 40.7325L250.486 51.2626C250.087 51.5322 249.575 51.138 249.734 50.6836L255.603 33.8737C255.827 33.231 255.591 32.5178 255.027 32.1366L239.736 21.7982C239.328 21.5221 239.523 20.884 240.016 20.884H259.073C259.711 20.884 260.279 20.4806 260.489 19.8785L266.428 2.86883Z" stroke="#BABABA" stroke-linejoin="round"/>
<path d="M344.828 2.86883C344.984 2.42192 345.616 2.42192 345.772 2.86883L351.711 19.8785C351.921 20.4806 352.489 20.884 353.127 20.884H372.184C372.677 20.884 372.872 21.5221 372.464 21.7982L357.173 32.1366C356.609 32.5178 356.373 33.231 356.597 33.8737L362.466 50.6836C362.625 51.138 362.113 51.5322 361.714 51.2626L346.14 40.7325C345.632 40.3893 344.967 40.3893 344.459 40.7325L328.885 51.2626C328.486 51.5322 327.974 51.138 328.133 50.6836L334.002 33.8737C334.227 33.231 333.99 32.5178 333.426 32.1366L318.135 21.7982C317.727 21.5221 317.922 20.884 318.416 20.884H337.472C338.11 20.884 338.678 20.4806 338.889 19.8785L344.828 2.86883Z" stroke="#BABABA" stroke-linejoin="round"/>
</svg>
