<svg width="42" height="42" viewBox="0 0 42 42" fill="none" xmlns="http://www.w3.org/2000/svg">
<circle cx="21" cy="21" r="20" stroke="#92A0CF" stroke-width="2"/>
<circle cx="13.0541" cy="26.1082" r="1.13514" fill="#92A0CF"/>
<circle cx="21.0004" cy="26.1082" r="1.13514" fill="#92A0CF"/>
<circle cx="17.0277" cy="32.3512" r="1.13514" fill="#92A0CF"/>
<circle cx="28.9467" cy="26.1082" r="1.13514" fill="#92A0CF"/>
<circle cx="24.4047" cy="32.3512" r="1.13514" fill="#92A0CF"/>
<path d="M15.9987 9.67688C17.3105 8.56514 18.9836 7.95114 20.7158 7.9458C24.2464 7.9458 27.1773 10.5257 27.4962 13.8524C29.5857 14.1426 31.2158 15.8621 31.2158 17.9724C31.2158 20.2891 29.2497 22.135 26.8675 22.135H15.1784C12.4576 22.135 10.2158 20.0273 10.2158 17.3855C10.2158 15.1113 11.8774 13.228 14.0772 12.7508C14.2649 11.6376 14.9933 10.5282 15.9987 9.67688ZM16.8558 10.6534C15.8622 11.4957 15.3424 12.5109 15.3424 13.3054V13.8833L14.7584 13.9465C12.9248 14.1439 11.5283 15.6234 11.5283 17.3855C11.5283 19.2778 13.1427 20.8451 15.1784 20.8451H26.8675C28.5646 20.8451 29.9033 19.5397 29.9033 17.9724C29.9033 16.4038 28.5646 15.0984 26.8675 15.0984H26.2113V14.4535C26.2126 11.5898 23.7713 9.23573 20.7158 9.23573C19.2982 9.24129 17.9292 9.74452 16.8558 10.6546V10.6534Z" fill="#92A0CF"/>
</svg>
