<svg width="19" height="19" viewBox="0 0 19 19" fill="none" xmlns="http://www.w3.org/2000/svg">
<path d="M15.0439 13.4564C13.7375 13.4564 12.6748 14.5192 12.6748 15.8255C12.6748 17.1318 13.7376 18.1946 15.0439 18.1946C16.3502 18.1946 17.413 17.1318 17.413 15.8255C17.413 14.5192 16.3502 13.4564 15.0439 13.4564ZM15.0439 16.7731C14.5213 16.7731 14.0963 16.3481 14.0963 15.8255C14.0963 15.3029 14.5213 14.8779 15.0439 14.8779C15.5665 14.8779 15.9915 15.3029 15.9915 15.8255C15.9915 16.3481 15.5665 16.7731 15.0439 16.7731Z" fill="white"/>
<path d="M18.849 4.30003C18.7144 4.1278 18.508 4.02735 18.2894 4.02735H4.3871L3.74744 1.35101C3.67092 1.03119 3.38495 0.80542 3.05612 0.80542H0.710723C0.318178 0.805383 0 1.12356 0 1.51611C0 1.90865 0.318178 2.22683 0.710723 2.22683H2.49514L4.80499 11.8918C4.88151 12.2118 5.16747 12.4373 5.4963 12.4373H16.56C16.8867 12.4373 17.1714 12.2147 17.2498 11.8977L18.9793 4.90885C19.0316 4.69662 18.9835 4.47225 18.849 4.30003ZM16.0039 11.0159H6.05729L4.7268 5.44879H17.3813L16.0039 11.0159Z" fill="white"/>
<path d="M6.44451 13.4564C5.13818 13.4564 4.07544 14.5192 4.07544 15.8255C4.07544 17.1318 5.13822 18.1946 6.44451 18.1946C7.75081 18.1946 8.81359 17.1318 8.81359 15.8255C8.81359 14.5192 7.75081 13.4564 6.44451 13.4564ZM6.44451 16.7731C5.9219 16.7731 5.49688 16.3481 5.49688 15.8255C5.49688 15.3029 5.9219 14.8779 6.44451 14.8779C6.96713 14.8779 7.39215 15.3029 7.39215 15.8255C7.39215 16.3481 6.96713 16.7731 6.44451 16.7731Z" fill="white"/>
</svg>
