<svg width="35" height="32" viewBox="0 0 35 32" fill="none" xmlns="http://www.w3.org/2000/svg">
<line x1="22.487" y1="10.4143" x2="24.5848" y2="12.5122" stroke="#414141" stroke-width="2" stroke-linecap="round" stroke-linejoin="round"/>
<path d="M27.762 18.8531H30.9008C32.2298 18.8531 32.9023 17.2524 31.9721 16.3032L18.0627 2.10984C17.4683 1.50333 16.4895 1.51072 15.9043 2.12613L2.40899 16.3195C1.50067 17.2748 2.17784 18.8531 3.49604 18.8531H6.74496" stroke="#414141" stroke-width="2" stroke-linecap="round"/>
<path d="M6.69873 18.9225V28.2673C6.69873 29.3719 7.59416 30.2673 8.69873 30.2673H13.0229C13.4095 30.2673 13.7229 29.9539 13.7229 29.5673V24.6578C13.7229 23.5532 14.6183 22.6578 15.7229 22.6578H18.7471C19.8516 22.6578 20.7471 23.5532 20.7471 24.6578V29.5673C20.7471 29.9539 21.0605 30.2673 21.4471 30.2673H25.7712C26.8758 30.2673 27.7712 29.3719 27.7712 28.2673V18.9225" stroke="#414141" stroke-width="2" stroke-linecap="round"/>
</svg>
